Simulation
nRows=16
nColumns=15
endheader
time  TH_x TH_y TH_z SC_y  SC_z  SC_x  AC_y  AC_z  AC_x  GH_y  GH_z  GH_yy  EL_x  PS_y
2.0  0.000000  0.000000  0.000000  -26.727530203194956  6.4644117831726975  71.61864010301127  86.84503970725265  -33.47165177284012  57.29753527748287  37.16984416068221  25.610000815557694  -139.75293347078107  -57.05832003111953  0.000000
2.04  0.000000  0.000000  0.000000  -54.47432137938039  1.1685581382828087  36.08887514562034  48.13312921777251  2.9198822558277397  20.09466479900767  -16.84587238485491  19.95920981624479  -19.546370971571815  44.730410544345354  0.000000
2.08  0.000000  0.000000  0.000000  -56.01370059952202  -20.7088674176048  17.397304039075628  0.8237418134938224  42.74811903249949  -2.7568587363381227  6.194465053901666  -21.969549156161786  26.767618685187976  98.53957578106616  0.000000
2.12  0.000000  0.000000  0.000000  -32.376950992237184  -10.312910445685336  27.879885159192117  8.99499680536836  28.89103176359448  -25.205846267517984  47.056714178675065  29.08192326113758  -40.27182686120323  49.6933220703975  0.000000
2.16  0.000000  0.000000  0.000000  -18.337479800524587  -15.921338421684736  43.008831117550315  21.274025561382278  23.894625067590884  -51.3089572212361  87.54237334591446  57.78452141243331  -76.77888101388335  21.19847858181068  0.000000
2.2  0.000000  0.000000  0.000000  -12.48849719103957  -16.45699751899339  43.548956856188354  23.308438678835213  19.66694938784788  -47.59566126052171  87.06134614948077  62.759043165973374  -68.41932736267908  19.72830287421978  0.000000
2.24  0.000000  0.000000  0.000000  -13.443807631536906  -15.802103346053189  42.98045463223197  21.39488054595588  20.571174067849874  -50.42822758983434  97.54087004496363  70.6072062910974  -68.87902749522937  22.448874246557118  0.000000
2.2800000000000002  0.000000  0.000000  0.000000  -14.804359897753065  -14.723651781762749  43.68389268436585  21.843504798924418  18.867911753135335  -46.29017937011097  101.77214718606254  63.975681771057  -68.67163734125263  22.743549723706852  0.000000
2.32  0.000000  0.000000  0.000000  -13.478652599532204  -13.31999589985307  29.910004296069992  15.507965977823174  21.359799653705885  -34.12371265065323  101.38839706977761  63.13596064949202  -70.80601332913605  26.369952729044602  0.000000
2.36  0.000000  0.000000  0.000000  -13.934439354281551  -18.572323569096877  14.013194467203846  10.465439521415558  33.582807339205644  -19.454445529420205  105.14666857511658  68.68815547276493  -73.10913609664482  25.71891711696209  0.000000
2.4  0.000000  0.000000  0.000000  -14.214164780031187  -19.418879441863265  20.29342451524433  13.44191625518771  32.36667160437473  -25.903501504959515  108.14586353583691  68.25014940202239  -72.48993541649712  23.69627734953731  0.000000
2.44  0.000000  0.000000  0.000000  -11.934917967696249  -14.900942710481779  39.17775203609961  23.419265615338123  18.36019834494741  -43.969179617239085  105.11334571619831  60.30894947367541  -72.56744553495254  23.12185352947446  0.000000
2.48  0.000000  0.000000  0.000000  -11.139330049704432  -14.620082820118169  44.72567945321929  18.776434547737757  15.298283516698614  -46.64454028516774  106.82232235015383  57.16998866879362  -71.97040848811062  23.41902504676759  0.000000
2.52  0.000000  0.000000  0.000000  -14.95987581970812  -19.39822888910855  19.763653723852055  19.345449960615596  34.831468912324944  -29.673564424686052  106.6337426327022  61.25836158607916  -81.39423550092629  26.865571674057318  0.000000
2.56  0.000000  0.000000  0.000000  -17.994517502909023  -19.190670730755294  4.348932313936824  -6.099584830437381  38.32551404137006  -3.2068355505397554  131.75110581230473  53.77906216327503  -84.76627603177157  27.503435921557067  0.000000
2.6  0.000000  0.000000  0.000000  -19.036854970771298  -10.977081765329656  14.375763141667829  14.888861654439575  23.211817810932356  -18.52373924232884  126.19561544925529  53.72707826156449  -94.77730946866275  17.564537200631207  0.000000
